HIERARCHY
ROOT Hips
{
  OFFSET 13.6774 106.653 -34.4427
  CHANNELS 6 Xposition Yposition Zposition Zrotation Xrotation Yrotation
  JOINT ToSpine
  {
    OFFSET -2.69724 7.43032 -0.144315
    CHANNELS 3 Zrotation Xrotation Yrotation
    JOINT Spine
    {
      OFFSET -0.0310711 10.7595 1.96963
      CHANNELS 3 Zrotation Xrotation Yrotation
      JOINT Spine1
      {
        OFFSET 19.9056 3.91189 0.764692
        CHANNELS 3 Zrotation Xrotation Yrotation
        JOINT Neck
        {
          OFFSET 25.9749 7.03908 -0.130764
          CHANNELS 3 Zrotation Xrotation Yrotation
          JOINT Head
          {
            OFFSET 9.52751 0.295786 -0.907742
            CHANNELS 3 Zrotation Xrotation Yrotation
            End Site
            {
              OFFSET 16.4037 0.713936 2.7358
            }
          }
        }
        JOINT LeftShoulder
        {
          OFFSET 17.7449 4.33886 11.7777
          CHANNELS 3 Zrotation Xrotation Yrotation
          JOINT LeftArm
          {
            OFFSET 0.911315 1.27913 9.80584
            CHANNELS 3 Zrotation Xrotation Yrotation
            JOINT LeftForeArm
            {
              OFFSET 28.6126 1.18197 -3.53199
              CHANNELS 3 Zrotation Xrotation Yrotation
              JOINT LeftHand
              {
                OFFSET 27.5088 0.0218783 0.327423
                CHANNELS 3 Zrotation Xrotation Yrotation
                End Site
                {
                  OFFSET 18.6038 -0.000155887 0.382096
                }
              }
            }
          }
        }
        JOINT RightShoulder
        {
          OFFSET 17.1009 2.89543 -12.2328
          CHANNELS 3 Zrotation Xrotation Yrotation
          JOINT RightArm
          {
            OFFSET 1.4228 0.178766 -10.211
            CHANNELS 3 Zrotation Xrotation Yrotation
            JOINT RightForeArm
            {
              OFFSET 28.733 1.87905 2.64907
              CHANNELS 3 Zrotation Xrotation Yrotation
              JOINT RightHand
              {
                OFFSET 27.4588 0.290562 -0.101845
                CHANNELS 3 Zrotation Xrotation Yrotation
                End Site
                {
                  OFFSET 17.8396 -0.255518 -0.000602873
                }
              }
            }
          }
        }
      }
    }
  }
  JOINT LeftUpLeg
  {
    OFFSET -5.61296 -2.22332 -10.2353
    CHANNELS 3 Zrotation Xrotation Yrotation
    JOINT LeftLeg
    {
      OFFSET 2.56703 -44.7417 -7.93097
      CHANNELS 3 Zrotation Xrotation Yrotation
      JOINT LeftFoot
      {
        OFFSET 3.16933 -46.5642 -3.96578
        CHANNELS 3 Zrotation Xrotation Yrotation
        JOINT LeftToeBase
        {
          OFFSET 0.346054 -6.02161 12.8035
          CHANNELS 3 Zrotation Xrotation Yrotation
          End Site
          {
            OFFSET 0.134235 -1.35082 5.13018
          }
        }
      }
    }
  }
  JOINT RightUpLeg
  {
    OFFSET -5.7928 -1.72406 10.6446
    CHANNELS 3 Zrotation Xrotation Yrotation
    JOINT RightLeg
    {
      OFFSET -2.57161 -44.7178 -7.85259
      CHANNELS 3 Zrotation Xrotation Yrotation
      JOINT RightFoot
      {
        OFFSET -3.10148 -46.5936 -4.03391
        CHANNELS 3 Zrotation Xrotation Yrotation
        JOINT RightToeBase
        {
          OFFSET -0.0828122 -6.13587 12.8035
          CHANNELS 3 Zrotation Xrotation Yrotation
          End Site
          {
            OFFSET -0.131328 -1.35082 5.13018
          }
        }
      }
    }
  }
}
MOTION
Frames: 14
Frame Time: 0.03333333333333333
0.0000 93.1000 0.0000 52.3348 -36.8945 -29.8623 -70.9464 0.0439 88.0133 89.4243 67.1613 -5.0720 -2.8992 16.8810 1.2196 -167.2953 19.9334 174.5161 -161.4865 60.1623 -175.3402 -0.0836 -12.9173 -28.0429 -83.5998 45.2818 -76.8009 15.1274 -11.0570 -124.3839 -0.1935 0.3656 -0.3107 -2.5137 6.7423 43.2783 -67.9313 -45.6587 50.9590 15.0129 -0.9167 88.3473 0.1345 -0.3859 -0.1785 -65.7495 -9.3697 88.9104 -3.9514 43.2440 -17.2931 -7.8468 5.3257 1.1307 2.6657 -5.8319 -0.6327 -24.2410 1.5056 86.1176 0.6396 19.9851 18.2376 9.1887 11.2912 -2.8515 1.3946 -15.9246 -19.7199 
0.0000 93.1000 0.0000 49.5735 -39.0431 -33.5076 -70.9417 -0.0422 88.0452 86.6073 68.1367 -4.3105 -3.4804 17.5213 1.7778 -169.0291 19.9158 174.3566 -161.2530 59.8071 -175.6165 -0.1003 -13.0724 -28.1344 -81.9983 45.3514 -77.6109 14.0203 -10.1346 -122.3205 0.0661 0.5278 -0.0521 -2.2718 6.4575 43.4351 -69.2384 -43.1528 53.0593 14.5441 -0.6759 89.0465 0.1784 -0.1408 0.1395 -62.4620 -11.0831 90.6949 -3.5967 39.0800 -16.2419 -6.1781 1.6110 0.3405 5.7009 -12.4247 1.6476 -21.3934 4.4062 95.9168 1.6954 35.4267 9.9683 3.3996 4.1360 -1.4386 1.3820 -24.2700 -25.2115 
0.0000 93.1000 0.0000 51.5487 -41.8554 -30.6884 -71.0070 -0.0945 88.0541 98.4867 68.9757 -13.7687 -5.3893 18.9541 2.4041 -166.0365 20.5713 172.6338 -158.4626 60.4039 -176.5631 0.1199 -13.8122 -29.2402 -80.8288 46.0172 -74.6203 14.1759 -7.3227 -115.5413 -0.1254 0.2963 -0.3024 -2.5681 6.3271 44.0488 -67.9642 -40.0400 59.8048 13.7011 -0.6954 87.0513 0.3850 -0.5391 -0.4920 -58.7960 -10.2508 91.1825 -4.2736 40.8535 -14.2502 -5.2111 -3.8053 -0.2838 8.1452 -18.7654 2.5299 -23.1649 5.1327 95.8258 2.7456 53.4594 3.0177 -2.3987 0.5929 -0.1498 1.1883 -26.5033 -22.8636 
0.0000 93.1000 0.0000 53.4028 -42.9145 -28.1704 -71.0330 -0.4007 87.9678 108.6226 69.3133 -23.5204 -7.1023 19.4285 3.8724 -165.6215 20.9899 174.6606 -157.1651 61.4107 -176.1935 0.0566 -14.0637 -30.9861 -78.8107 47.0197 -72.8047 16.4421 -4.9796 -104.4020 -0.4259 -0.0731 -0.3518 -2.9097 5.9727 45.3400 -68.2193 -35.9730 66.1490 14.2929 -1.7079 84.8679 0.2663 -0.4709 -0.4633 -52.7779 -9.3795 91.2542 -5.3530 47.2956 -11.8984 -1.4985 -14.3266 -1.6098 6.4448 -14.2347 5.9558 -27.0004 4.1153 93.7936 6.5642 69.4166 -8.5113 -5.1041 -2.8672 0.5428 0.7641 -22.4718 -16.1651 
0.0000 93.1000 0.0000 52.5335 -44.0029 -28.2511 -70.9668 -0.9359 87.9979 108.3712 70.2168 -24.6159 -6.8462 20.1970 4.2731 -165.3784 21.8385 174.1377 -156.3866 61.4200 -179.3495 -0.2965 -13.8247 -32.0703 -77.7788 48.3290 -71.8603 17.7849 -1.7421 -92.0807 -0.1546 -0.1595 -0.4099 -3.4660 5.9639 46.3469 -68.2441 -31.7599 74.1455 14.2150 -1.9913 84.2330 0.0328 -0.5519 -0.7537 -42.4830 -8.2326 90.7625 -5.6114 55.9607 -13.7075 1.3438 -18.9676 -1.7693 5.8986 -15.4357 15.5466 -31.6704 2.3177 92.9026 15.3083 79.2096 -18.6644 -6.4813 -2.0099 0.5764 1.1239 -23.6371 -15.1150 
0.0000 93.1000 0.0000 55.6474 -45.5031 -27.8903 -71.1007 1.1699 88.1781 108.4099 71.1859 -25.4064 -5.1192 21.6713 4.0110 -166.3540 22.8203 171.4675 -157.5772 62.1919 -179.8535 1.1073 -14.2238 -32.3602 -74.0046 50.2900 -69.9782 14.7472 1.8335 -81.7679 0.2446 0.9588 0.1393 -1.2476 5.8522 46.8778 -67.3524 -29.0254 81.6429 13.7475 -1.1055 86.0209 -0.2740 0.5166 0.9481 -34.9751 -8.1042 91.9111 -8.1053 60.2100 -14.0993 4.3486 -16.9822 -2.8925 5.1858 -16.7960 20.7990 -42.4992 -0.4881 92.8775 26.5847 83.0671 -28.4693 -9.8795 -1.1943 1.3083 3.7129 -23.5331 -9.4772 
0.0000 93.1000 0.0000 58.8172 -46.9660 -26.2830 -71.3722 -0.4730 87.8028 114.3307 72.3229 -30.2028 -5.4683 22.9453 4.1666 -165.3400 24.3751 172.9521 -154.2483 63.0544 176.8374 0.2658 -14.8513 -32.9623 -70.0092 53.3005 -65.1490 12.4050 1.8849 -80.1410 -0.0560 -0.1241 -0.1209 -3.0341 6.6327 42.6827 -66.2791 -31.9990 88.9839 14.9447 0.2132 91.9988 0.2744 -0.0405 -0.4937 -31.8170 -7.5117 92.1354 -5.7532 59.0327 -7.5515 6.2423 -16.2925 -2.2387 3.7853 -11.0973 13.5648 -55.9440 -3.0510 92.2547 12.7317 77.4472 -16.8641 -8.8521 2.0689 0.6786 1.1849 -19.5033 -2.4468 
0.0000 93.1000 0.0000 55.7679 -47.8824 -28.0342 -71.2503 -0.1297 87.9897 111.1955 75.1657 -26.2432 -5.2136 25.2203 2.8244 -162.3466 25.9559 171.8239 -154.0213 65.0907 177.9335 0.1126 -13.1934 -31.1732 -65.9247 56.3367 -62.1762 13.4045 1.9309 -81.5227 0.1033 -0.2556 0.3283 -2.0032 6.6176 40.2008 -65.4294 -34.8618 94.0500 15.8860 1.8130 99.1051 -0.1421 0.8769 0.7480 -28.0445 -5.4272 90.8675 -3.8624 52.2188 -5.0542 3.9965 -8.5483 -1.5396 1.8399 -6.6859 4.8629 -65.3219 -4.5325 92.9316 4.7146 65.1782 -9.7565 -3.5856 7.1145 -0.9211 1.5463 -9.5907 -1.8145 
0.0000 93.1000 0.0000 54.1420 -47.0707 -28.9590 -71.1323 0.5022 88.2237 109.1093 76.9861 -21.1774 -4.8620 27.1319 1.4861 -162.3466 27.8043 173.1160 -153.2605 67.2747 176.1675 0.4526 -12.1496 -28.2658 -64.1440 60.2769 -59.1157 12.7285 1.2646 -84.5302 0.2164 0.1970 0.2371 -1.1146 6.5501 39.1371 -64.1743 -35.2882 96.9184 16.5466 4.4493 105.0796 -0.2818 0.6621 0.8847 -28.0326 -3.1146 88.4478 -3.0938 36.2512 -8.5540 -0.8838 3.6674 -0.0724 1.1939 -4.3783 0.1318 -72.3087 -2.5645 92.6795 2.9535 50.2507 -5.9889 -1.2627 10.1006 -1.0823 1.0747 -3.6791 -4.6561 
0.0000 93.1000 0.0000 51.3842 -45.1818 -27.4281 -70.9603 0.6759 88.3139 107.3755 77.1492 -15.0997 -4.8911 27.4622 -0.2491 -163.3649 29.7876 171.8297 -152.1723 69.1299 173.2278 0.1213 -11.8897 -26.1322 -65.7998 62.9639 -52.9368 12.6094 0.1835 -87.5430 0.0491 0.3247 0.0788 -1.2634 6.1506 39.1802 -63.2730 -35.6706 97.1439 16.1080 7.1553 111.6593 0.0769 0.3402 0.6115 -26.4771 0.8143 92.7066 -0.3850 23.3179 -22.2411 -5.9153 12.2399 1.5790 3.0894 -9.7220 6.5718 -73.9281 0.3190 92.6125 1.8273 39.8284 -0.7797 -4.7227 10.8652 -0.2272 1.9529 -9.6814 -5.7506 
0.0000 93.1000 0.0000 46.7850 -42.9632 -29.5781 -70.8169 0.5014 88.2617 89.2717 77.4274 5.0597 -2.3466 27.5937 -2.0065 -164.3395 32.1120 170.8859 -150.4316 71.1218 170.4514 -0.2360 -11.7702 -26.5241 -67.1559 62.8605 -49.8012 12.3480 -0.3323 -89.1306 0.0944 0.3418 -0.1315 -1.2363 5.9299 39.1826 -64.2303 -36.7811 95.4905 17.6415 8.7378 115.8479 -0.1851 0.0642 0.4432 -20.1179 1.6018 88.2626 -1.9037 30.4146 -18.7370 -4.7063 8.6416 0.9455 4.2005 -12.6140 14.2159 -70.7502 3.5289 92.3625 1.3884 34.3083 -1.2685 -6.6158 8.9611 0.0913 1.1864 -10.5191 -3.6820 
0.0000 93.1000 0.0000 49.7197 -42.0710 -28.4356 -70.8435 0.3994 88.1295 97.2003 76.1711 -4.0504 -3.2988 26.1770 0.0239 -164.3179 33.7335 170.5271 -152.7795 73.0656 172.5425 0.0644 -11.8474 -27.9158 -71.7543 60.9657 -46.8195 15.4382 0.1751 -89.4686 -0.0051 0.0726 0.1468 -1.2548 5.9425 40.3167 -64.4100 -37.7818 91.5979 16.3207 7.9573 115.4386 -0.0197 -0.0144 0.4229 -20.7640 0.6128 87.0945 -3.8144 43.1814 -12.6330 -5.9260 4.1234 0.6397 5.2349 -14.8772 13.9601 -67.8953 2.5010 88.9749 0.4426 35.6457 -2.1718 -10.0985 5.8636 0.8273 1.8479 -13.3905 -3.6323 
0.0000 93.1000 0.0000 53.6643 -41.7714 -28.6724 -70.8983 -0.0336 87.9195 111.1763 74.4669 -23.3966 -5.8000 25.2181 2.7335 -162.2666 35.6649 169.6524 -152.6533 75.2822 172.8036 0.1231 -12.0494 -29.4329 -70.2281 59.6491 -52.8112 14.1289 0.0304 -88.5813 -0.1748 -0.2044 0.1574 -1.8578 5.9268 42.1741 -67.0965 -37.1485 85.6561 20.2395 7.9193 109.7773 -0.0027 0.0199 0.0183 -24.8683 -0.7179 92.2390 -5.4139 58.5087 -6.5973 -5.5296 0.4097 0.2464 2.9060 -9.0864 12.3944 -64.7729 0.3478 90.5315 2.2087 38.5820 -2.9784 -7.4473 2.2908 0.2277 0.3467 -12.9065 -2.8968 
0.0000 93.1000 0.0000 54.6506 -41.1383 -29.9259 -70.9668 -0.0404 88.1355 109.0524 73.2353 -25.5120 -5.9790 24.0019 3.1303 -162.3170 36.0973 169.3836 -152.1734 75.2815 172.5171 0.0330 -12.7375 -31.3724 -71.9793 56.7129 -54.7382 14.0809 -0.1730 -89.2072 0.0645 0.1481 -0.0710 -2.1467 5.9110 44.1705 -69.1728 -35.8184 80.4338 21.8135 4.8441 102.6062 0.0428 -0.2660 -0.1623 -27.2987 -0.3223 93.9115 -11.5338 72.0844 1.4329 -4.9706 2.6764 0.2521 2.6572 -10.7649 10.7690 -57.9867 1.3616 91.5849 1.9887 41.4167 -0.1353 -6.0028 -1.8323 -0.1315 2.6586 -33.3866 -13.9209 
